# xmcd
# 
# Track frame offsets:
#     150
#     32600
#     53812
#     63310
#     87150
#     107357
#     133807
#     151797
#     175017
#     195807
#     214485
#     249910
#     277667
#     309007
#     314030
# 
# Disc length: 4428
# 
# Revision: 8
# Processed by: cddbd v1.5.2PL0 Copyright (c) Steve Scherf et al.
# Submitted via: fre:ac v1.0.31
# 
DISCID=b8114a0f
DTITLE=Muddy Waters - Master Of The Blues
DYEAR=2001
DGENRE=Blues
TTITLE0=Last Nite
TTITLE1=Harry's Groove
TTITLE2=Instrumental
TTITLE3=Nine Below Zero
TTITLE4=Baby Please Don't Go
TTITLE5=They Call Me Muddy Waters
TTITLE6=Everything Gonna Be Alright
TTITLE7=Mannish Boy
TTITLE8=Lonesome In My Bedroom
TTITLE9=Corrine Corrina
TTITLE10=Kansas City
TTITLE11=Caldonia
TTITLE12=Long Distance Call
TTITLE13=Hold It
TTITLE14=Got My Mojo Working
EXTD=YEAR: 2001
EXTT0=
EXTT1=
EXTT2=
EXTT3=
EXTT4=
EXTT5=
EXTT6=
EXTT7=
EXTT8=
EXTT9=
EXTT10=
EXTT11=
EXTT12=
EXTT13=
EXTT14=
PLAYORDER=
